# xmcd CD database file
#
# Track frame offsets:
#	182
#	42377
#	76815
#	102757
#	134670
#	165122
#	194017
#
# Disc length: 3013 seconds
#
# Revision: 0
# Processed by: cddbd v1.5PL3 Copyright (c) Steve Scherf et al.
# Submitted via: CDex 1.51
#
DISCID=540bc307
DTITLE=Michael Session - 'N Session
DYEAR=1992
DGENRE=Jazz
TTITLE0=Quagmire Manor At Five A.M.
TTITLE1=Bavarian Mist
TTITLE2=Short Stop
TTITLE3=UMATU
TTITLE4=No Cash
TTITLE5=Lately's Solo (Milestones)
TTITLE6=Maud's Mood
EXTD=YEAR: 1992
EXTT0=
EXTT1=
EXTT2=
EXTT3=
EXTT4=
EXTT5=
EXTT6=
PLAYORDER=
